<?xml version="1.0" standalone="no"?><!DOCTYPE svg PUBLIC "-//W3C//DTD SVG 1.1//EN" "http://www.w3.org/Graphics/SVG/1.1/DTD/svg11.dtd"><svg t="1698825540637" class="icon" viewBox="0 0 1228 1024" version="1.1" xmlns="http://www.w3.org/2000/svg" p-id="1158" xmlns:xlink="http://www.w3.org/1999/xlink" width="239.84375" height="200"><path d="M1221.680014 684.2368L1154.164281 418.929778a93.297778 93.297778 0 0 0-90.498845-70.269156h-6.235022V93.297778a93.297778 93.297778 0 0 0-93.297778-93.297778H264.05797a93.297778 93.297778 0 0 0-93.297778 93.297778v254.407111h-5.916444a93.297778 93.297778 0 0 0-90.498845 70.610489L2.187036 708.175644a69.131378 69.131378 0 0 0-2.184533 17.749334v186.595555a93.297778 93.297778 0 0 0 93.297778 93.297778h1041.908622a93.297778 93.297778 0 0 0 93.297778-93.297778v-173.238044a241.959822 241.959822 0 0 0-6.826667-55.045689zM329.366414 233.2672l214.584889-2.184533v111.047111h-213.014755l-1.570134-108.862578z m354.872889 0l214.289067-2.184533v111.047111H684.262059V233.244444zM232.951125 93.297778c0-17.2032 13.9264-31.106844 31.106845-31.106845H964.155392A31.106844 31.106844 0 0 1 995.262236 93.297778v248.832H959.14917v-111.047111a60.347733 60.347733 0 0 0-60.029156-60.029156H684.262059a60.347733 60.347733 0 0 0-62.190934 60.029156v111.047111h-16.1792v-111.047111a60.347733 60.347733 0 0 0-60.029155-60.029156H328.137614a60.347733 60.347733 0 0 0-58.800355 60.029156v111.047111h-36.386134V93.297778zM134.669881 433.220267c3.640889-14.108444 16.566044-23.779556 31.106844-23.324445h897.911467c14.5408-0.455111 27.465956 9.238756 31.084089 23.324445l67.492978 265.307022a5.279289 5.279289 0 0 0 0 2.161778H68.109881L134.669881 433.265778z m1000.561778 509.769955H93.300281a31.106844 31.106844 0 0 1-31.084089-31.106844v-148.980622h1104.099556v148.980622c0 17.180444-13.9264 31.106844-31.106845 31.106844z" p-id="1159"></path></svg>