<?xml version="1.0" standalone="no"?><!DOCTYPE svg PUBLIC "-//W3C//DTD SVG 1.1//EN" "http://www.w3.org/Graphics/SVG/1.1/DTD/svg11.dtd"><svg t="1698825518243" class="icon" viewBox="0 0 1024 1024" version="1.1" xmlns="http://www.w3.org/2000/svg" p-id="1013" xmlns:xlink="http://www.w3.org/1999/xlink" width="200" height="200"><path d="M512 306.493793A153.017379 153.017379 0 1 1 512 0.47669a153.017379 153.017379 0 0 1 0 306.017103z m0-244.806621a91.806897 91.806897 0 1 0 0 183.613794 91.806897 91.806897 0 0 0 0-183.613794zM756.824276 581.914483H695.613793c0-173.815172-53.248-244.806621-183.613793-244.806621S328.386207 408.09931 328.386207 581.914483h-61.210483c0-131.283862 25.405793-306.017103 244.824276-306.017104s244.824276 174.733241 244.824276 306.017104zM83.561931 520.721655h856.876138a30.596414 30.596414 0 0 1 0 61.192828H83.561931a30.596414 30.596414 0 0 1 0-61.192828z m737.986207 489.630897H202.451862a88.275862 88.275862 0 0 1-88.275862-88.275862V520.721655H879.227586v61.192828H175.368828v331.917241a35.310345 35.310345 0 0 0 35.310344 35.310345h602.641656a35.310345 35.310345 0 0 0 35.310344-35.310345V734.931862a30.596414 30.596414 0 1 1 61.192828 0v187.144828a88.275862 88.275862 0 0 1-88.275862 88.275862z" p-id="1014"></path></svg>