<?xml version="1.0" standalone="no"?><!DOCTYPE svg PUBLIC "-//W3C//DTD SVG 1.1//EN" "http://www.w3.org/Graphics/SVG/1.1/DTD/svg11.dtd"><svg t="1698825502394" class="icon" viewBox="0 0 1024 1024" version="1.1" xmlns="http://www.w3.org/2000/svg" p-id="865" xmlns:xlink="http://www.w3.org/1999/xlink" width="200" height="200"><path d="M810.02496 1002.0864H213.97504c-105.94304 0-192.04096-86.1184-192.04096-192.06144V213.97504c0-105.94304 86.09792-192.04096 192.04096-192.04096h596.04992c105.94304 0 192.04096 86.09792 192.04096 192.04096v596.04992c0 105.94304-86.09792 192.04096-192.04096 192.04096zM213.97504 74.89536c-76.14464 0-139.0592 62.91456-139.0592 139.0592v596.04992c0 76.14464 62.91456 139.0592 139.0592 139.0592h596.04992c76.14464 0 139.0592-62.91456 139.0592-139.0592V213.97504c0-76.14464-62.91456-139.0592-139.0592-139.0592H213.97504z" p-id="866"></path><path d="M445.76768 803.38944c-158.9248 0-291.38944-129.1264-291.38944-291.38944 0-158.9248 129.14688-291.38944 291.38944-291.38944 158.94528 0 291.40992 129.1264 291.40992 291.38944 0 158.9248-132.46464 291.38944-291.40992 291.38944z m0-529.8176A237.42464 237.42464 0 0 0 207.38048 512c0 132.44416 109.2608 238.40768 238.3872 238.40768 132.46464 0 238.42816-109.2608 238.42816-238.40768a237.42464 237.42464 0 0 0-238.42816-238.40768z" p-id="867"></path><path d="M445.76768 604.71296c-49.664 0-92.71296-39.7312-92.71296-92.71296s39.7312-92.71296 92.71296-92.71296 92.71296 39.7312 92.71296 92.71296-43.02848 92.71296-92.71296 92.71296z m0-132.44416c-23.16288 0-39.7312 19.8656-39.7312 39.7312s19.8656 39.7312 39.7312 39.7312 39.7312-19.8656 39.7312-39.7312-16.54784-39.7312-39.7312-39.7312z m397.35296-132.46464c-49.664 0-92.71296-39.7312-92.71296-92.71296s39.7312-92.71296 92.71296-92.71296 92.73344 39.7312 92.73344 92.71296-43.04896 92.71296-92.73344 92.71296z m0-132.44416c-23.16288 0-39.7312 19.8656-39.7312 39.7312s19.8656 39.7312 39.7312 39.7312 39.7312-19.8656 39.7312-39.7312-16.54784-39.7312-39.7312-39.7312z" p-id="868"></path><path d="M611.328 902.73792c-13.23008 0-23.16288-9.9328-23.16288-19.8656-3.31776-13.25056 6.61504-26.50112 19.8656-29.81888 119.1936-16.54784 211.92704-122.51136 211.92704-245.02272v-294.7072c0-13.25056 9.9328-26.50112 26.48064-26.50112 16.56832 0 26.50112 9.95328 26.50112 26.50112v294.7072c0 145.69472-109.28128 271.52384-251.65824 294.7072-6.63552-3.31776-9.9328 0-9.9328 0z" p-id="869"></path></svg>